HIERARCHY
ROOT Hips
{
	OFFSET 53.890900 -6.819594 86.366997
	CHANNELS 6 Xposition Yposition Zposition Xrotation Yrotation Zrotation
	JOINT spine
	{
		OFFSET 0.000000 -0.393701 6.846367
		CHANNELS 3 Xrotation Yrotation Zrotation
		JOINT spine1
		{
			OFFSET 0.000000 -0.000001 9.496208
			CHANNELS 3 Xrotation Yrotation Zrotation
			JOINT spine2
			{
				OFFSET 0.000000 -0.000001 9.099091
				CHANNELS 3 Xrotation Yrotation Zrotation
				JOINT Neck
				{
					OFFSET 0.000000 -1.113784 23.361198
					CHANNELS 3 Xrotation Yrotation Zrotation
					JOINT Head
					{
						OFFSET 0.000000 -0.000001 7.058014
						CHANNELS 3 Xrotation Yrotation Zrotation
						End Site
						{
							OFFSET 0.000000 5.634187 17.084396
						}
					}
				}
				JOINT RightShoulder
				{
					OFFSET -3.831360 0.533489 9.826309
					CHANNELS 3 Xrotation Yrotation Zrotation
					JOINT RightArm
					{
						OFFSET 0.000000 -0.000002 12.888100
						CHANNELS 3 Xrotation Yrotation Zrotation
						JOINT RightArmRoll
						{
							OFFSET 0.000000 -0.000001 6.506165
							CHANNELS 3 Xrotation Yrotation Zrotation
							JOINT RightForeArm
							{
								OFFSET 0.000000 -0.000003 18.950104
								CHANNELS 3 Xrotation Yrotation Zrotation
								JOINT RightForeArmRoll
								{
									OFFSET 0.000000 -0.000001 7.300919
									CHANNELS 3 Xrotation Yrotation Zrotation
									JOINT RightHand
									{
										OFFSET 0.000000 -0.000002 14.651398
										CHANNELS 3 Xrotation Yrotation Zrotation
										End Site
										{
											OFFSET 0.000000 0.000000 0.100006
										}
									}
								}
							}
						}
					}
				}
				JOINT LeftShoulder
				{
					OFFSET 3.831360 0.533489 9.826309
					CHANNELS 3 Xrotation Yrotation Zrotation
					JOINT LeftArm
					{
						OFFSET 0.000000 -0.000002 12.888100
						CHANNELS 3 Xrotation Yrotation Zrotation
						JOINT LeftArmRoll
						{
							OFFSET 0.000000 -0.000001 6.506165
							CHANNELS 3 Xrotation Yrotation Zrotation
							JOINT LeftForeArm
							{
								OFFSET 0.000000 -0.000003 18.950104
								CHANNELS 3 Xrotation Yrotation Zrotation
								JOINT LeftForeArmRoll
								{
									OFFSET 0.000000 -0.000001 7.300919
									CHANNELS 3 Xrotation Yrotation Zrotation
									JOINT LeftHand
									{
										OFFSET 0.000000 -0.000002 14.651398
										CHANNELS 3 Xrotation Yrotation Zrotation
										End Site
										{
											OFFSET 0.000000 0.000000 0.100006
										}
									}
								}
							}
						}
					}
				}
			}
		}
	}
	JOINT RightUpLeg
	{
		OFFSET -6.068371 0.933477 -1.112778
		CHANNELS 3 Xrotation Yrotation Zrotation
		JOINT RightUpLegRoll
		{
			OFFSET 0.000000 -0.000003 17.179604
			CHANNELS 3 Xrotation Yrotation Zrotation
			JOINT RightLeg
			{
				OFFSET 0.000000 0.000003 -21.274300
				CHANNELS 3 Xrotation Yrotation Zrotation
				JOINT RightLegRoll
				{
					OFFSET 0.000000 -0.000003 21.343903
					CHANNELS 3 Xrotation Yrotation Zrotation
					JOINT RightFoot
					{
						OFFSET 0.000000 -0.000003 17.765198
						CHANNELS 3 Xrotation Yrotation Zrotation
						JOINT RightToeBase
						{
							OFFSET 0.000000 -0.000002 14.850792
							CHANNELS 3 Xrotation Yrotation Zrotation
							End Site
							{
								OFFSET 0.006294 0.829003 7.192123
							}
						}
					}
				}
			}
		}
	}
	JOINT LeftUpLeg
	{
		OFFSET 6.068371 0.933477 -1.112778
		CHANNELS 3 Xrotation Yrotation Zrotation
		JOINT LeftUpLegRoll
		{
			OFFSET 0.000000 -0.000003 17.179703
			CHANNELS 3 Xrotation Yrotation Zrotation
			JOINT LeftLeg
			{
				OFFSET 0.000000 -0.000003 21.274200
				CHANNELS 3 Xrotation Yrotation Zrotation
				JOINT LeftLegRoll
				{
					OFFSET 0.000000 -0.000004 21.541206
					CHANNELS 3 Xrotation Yrotation Zrotation
					JOINT LeftFoot
					{
						OFFSET 0.000000 -0.000003 17.567902
						CHANNELS 3 Xrotation Yrotation Zrotation
						JOINT LeftToeBase
						{
							OFFSET 0.000000 -0.000002 14.850800
							CHANNELS 3 Xrotation Yrotation Zrotation
							End Site
							{
								OFFSET -0.028210 0.829004 7.192123
							}
						}
					}
				}
			}
		}
	}
}
MOTION
Frames: 9
Frame Time: 0.041667
52.519798 -7.217225 86.667503 1.745209 -1.300227 -0.222884 -2.124840 -1.056184 0.973045 -0.247515 -2.152940 1.910651 1.397656 -2.129927 1.936145 12.869004 14.288389 -3.782188 12.474575 -11.660753 -2.600121 -16.164498 -52.930117 -18.985740 76.076798 -78.905275 112.412039 -0.000003 -0.000003 -0.000007 0.056988 -7.532628 -0.315825 0.000002 0.000011 -3.006301 -5.000202 -7.999032 0.000125 -29.272524 71.652714 33.745257 81.472327 71.163659 -115.197356 -0.000002 -0.000001 0.000005 5.341426 10.848824 -1.214652 -0.000001 -0.000009 3.003685 -5.000192 7.998755 -0.000169 -17.315655 -178.364585 -2.313743 -179.999991 0.000005 -1.137003 155.356519 -3.322892 -1.261177 -0.000000 -0.000002 0.657101 73.748544 7.353102 0.413287 25.461303 -7.353972 0.000557 -12.951943 -179.119006 2.127202 -0.000019 -0.000004 -1.177910 -23.450857 1.724565 1.031441 -0.000007 -0.000005 -0.735827 76.747332 -6.744432 -1.958493 25.459074 7.348888 -0.000277 
52.524101 -7.214428 86.670998 1.745953 -1.303964 -0.227469 -2.124821 -1.055264 0.974739 -0.246111 -2.151101 1.914562 1.399055 -2.128036 1.940041 12.860024 14.277927 -3.786151 12.458624 -11.649414 -2.608493 -16.165806 -52.938942 -18.987509 76.133230 -78.908431 112.427680 -0.000003 -0.000003 -0.000009 0.053905 -7.557965 -0.314551 0.000006 0.000012 -3.006295 -5.000204 -7.999033 0.000120 -29.251108 71.645556 33.722116 81.519107 71.147007 -115.231397 -0.000001 0.000000 0.000004 5.337124 10.853076 -1.213893 -0.000002 -0.000007 3.003688 -5.000193 7.998756 -0.000164 -17.312759 -178.364557 -2.317890 -179.999991 0.000005 -1.137003 155.364264 -3.317630 -1.261231 -0.000002 -0.000002 0.657150 73.744767 7.352306 0.416221 25.461301 -7.353973 0.000558 -12.949256 -179.116056 2.132859 -0.000019 -0.000004 -1.177910 -23.437106 1.721331 1.030919 -0.000008 -0.000005 -0.735824 76.737052 -6.743223 -1.963266 25.459069 7.348889 -0.000277 
52.522499 -7.216217 86.684998 1.745814 -1.307573 -0.232341 -2.124679 -1.054335 0.976566 -0.244416 -2.149280 1.918743 1.400754 -2.126155 1.944218 12.851807 14.266344 -3.790553 12.442113 -11.637024 -2.617375 -16.167705 -52.948190 -18.990002 76.185207 -78.911764 112.438868 -0.000000 -0.000005 -0.000009 0.049174 -7.583338 -0.313243 0.000004 0.000011 -3.006303 -5.000201 -7.999034 0.000120 -29.228995 71.638180 33.698214 81.566918 71.130410 -115.266518 -0.000002 0.000001 0.000004 5.331537 10.857354 -1.213048 -0.000002 -0.000007 3.003692 -5.000197 7.998753 -0.000166 -17.308452 -178.364516 -2.322247 -179.999991 0.000005 -1.137003 155.372638 -3.312396 -1.261244 -0.000001 -0.000003 0.657187 73.740771 7.351477 0.419463 25.461296 -7.353972 0.000557 -12.945463 -179.113132 2.138188 -0.000019 -0.000004 -1.177910 -23.422759 1.718067 1.030383 -0.000009 -0.000005 -0.735820 76.726513 -6.741934 -1.968246 25.459069 7.348889 -0.000277 
52.519100 -7.219618 86.679489 1.745049 -1.311102 -0.237413 -2.124460 -1.053416 0.978475 -0.242515 -2.147460 1.923122 1.402644 -2.124284 1.948572 12.844067 14.254052 -3.795266 12.425170 -11.623869 -2.626636 -16.170008 -52.957780 -18.993004 76.232882 -78.915193 112.445917 -0.000004 -0.000005 -0.000009 0.043290 -7.608745 -0.311909 0.000002 0.000010 -3.006301 -5.000206 -7.999034 0.000120 -29.206237 71.630578 33.673618 81.615556 71.113737 -115.302541 -0.000001 -0.000001 0.000004 5.325069 10.861651 -1.212145 -0.000001 -0.000008 3.003689 -5.000193 7.998753 -0.000168 -17.303244 -178.365445 -2.326448 -179.999991 0.000005 -1.137003 155.381312 -3.306262 -1.261836 -0.000000 -0.000002 0.657215 73.736762 7.350617 0.422603 25.461301 -7.353974 0.000557 -12.940975 -179.110195 2.143284 -0.000019 -0.000004 -1.177910 -23.408211 1.714768 1.029843 -0.000008 -0.000005 -0.735814 76.715633 -6.740660 -1.973447 25.459067 7.348888 -0.000276 
52.518700 -7.214305 86.686691 1.743927 -1.314571 -0.242600 -2.124188 -1.052486 0.980434 -0.240498 -2.145651 1.927595 1.404664 -2.122423 1.953041 12.836714 14.241245 -3.800164 12.407900 -11.610429 -2.636085 -16.172532 -52.967547 -18.996288 76.278856 -78.918731 112.451299 -0.000001 -0.000003 -0.000007 0.036742 -7.634168 -0.310569 0.000003 0.000012 -3.006298 -5.000203 -7.999034 0.000120 -29.183407 71.622989 33.648927 81.664692 71.097085 -115.339069 -0.000001 -0.000000 0.000004 5.318075 10.865955 -1.211205 -0.000002 -0.000008 3.003692 -5.000194 7.998753 -0.000166 -17.297538 -178.365390 -2.331035 -179.999991 0.000005 -1.137003 155.390369 -3.301033 -1.261821 0.000000 -0.000002 0.657238 73.732637 7.349769 0.425852 25.461297 -7.353973 0.000557 -12.936080 -179.108215 2.148474 -0.000021 -0.000004 -1.177910 -23.393359 1.711463 1.029299 -0.000008 -0.000005 -0.735808 76.704732 -6.739329 -1.978543 25.459071 7.348889 -0.000277 
52.519299 -7.206177 86.683693 1.742722 -1.318020 -0.247817 -2.123908 -1.051547 0.982404 -0.238451 -2.143852 1.932099 1.406704 -2.120562 1.957542 12.829348 14.228247 -3.805069 12.390627 -11.596792 -2.645592 -16.175129 -52.977310 -18.999650 76.324372 -78.922242 112.456148 -0.000004 -0.000006 -0.000009 0.030031 -7.659589 -0.309230 0.000003 0.000008 -3.006298 -5.000204 -7.999032 0.000123 -29.160424 71.615305 33.624072 81.713699 71.080515 -115.375487 -0.000002 -0.000001 0.000006 5.310967 10.870258 -1.210266 0.000002 -0.000007 3.003689 -5.000195 7.998754 -0.000168 -17.291630 -178.366292 -2.335351 -179.999991 0.000005 -1.137003 155.399453 -3.294909 -1.261383 -0.000001 -0.000002 0.657260 73.728511 7.348892 0.429096 25.461294 -7.353972 0.000558 -12.931091 -179.105278 2.153399 -0.000019 -0.000004 -1.177910 -23.378506 1.708157 1.028759 -0.000008 -0.000005 -0.735802 76.693735 -6.738013 -1.983744 25.459067 7.348888 -0.000277 
52.522499 -7.208427 86.688896 1.741697 -1.321509 -0.252976 -2.123658 -1.050618 0.984353 -0.236462 -2.142042 1.936551 1.408693 -2.118700 1.961980 12.821905 14.215643 -3.809944 12.373574 -11.583340 -2.654965 -16.177590 -52.986985 -19.002845 76.370879 -78.925800 112.462077 -0.000002 -0.000002 -0.000009 0.023648 -7.685009 -0.307903 0.000003 0.000007 -3.006303 -5.000202 -7.999034 0.000120 -29.137519 71.607614 33.599312 81.762678 71.063822 -115.411878 -0.000000 0.000000 0.000004 5.304104 10.874461 -1.209329 -0.000001 -0.000008 3.003689 -5.000193 7.998756 -0.000169 -17.286022 -178.367194 -2.339624 -179.999991 0.000005 -1.137003 155.408291 -3.289684 -1.261388 0.000001 -0.000002 0.657284 73.724399 7.348043 0.432343 25.461299 -7.353972 0.000557 -12.926299 -179.103310 2.158628 -0.000019 -0.000004 -1.177910 -23.363757 1.704849 1.028219 -0.000008 -0.000005 -0.735796 76.682759 -6.736733 -1.988849 25.459069 7.348889 -0.000277 
52.521099 -7.202556 86.689400 1.741107 -1.325048 -0.257991 -2.123457 -1.049699 0.986241 -0.234620 -2.140222 1.940867 1.410533 -2.116829 1.966282 12.813972 14.203455 -3.814544 12.356645 -11.570465 -2.664097 -16.179782 -52.996493 -19.005700 76.419674 -78.929243 112.470164 -0.000001 -0.000001 -0.000007 0.018087 -7.710408 -0.306603 0.000004 0.000011 -3.006300 -5.000204 -7.999033 0.000122 -29.115037 71.600081 33.575007 81.810660 71.047088 -115.447231 0.000000 -0.000001 0.000006 5.297878 10.878749 -1.208438 0.000000 -0.000008 3.003692 -5.000192 7.998754 -0.000171 -17.281019 -178.367153 -2.344081 -179.999991 0.000005 -1.137003 155.416966 -3.283535 -1.260984 -0.000002 -0.000003 0.657315 73.720390 7.347209 0.435487 25.461299 -7.353972 0.000557 -12.922008 -179.100373 2.163783 -0.000019 -0.000004 -1.177910 -23.349210 1.701564 1.027688 -0.000009 -0.000005 -0.735790 76.671995 -6.735428 -1.994038 25.459073 7.348889 -0.000276 
52.518501 -7.205647 86.687500 1.741229 -1.328696 -0.262778 -2.123356 -1.048769 0.988027 -0.233012 -2.138392 1.944965 1.412132 -2.114949 1.970374 12.805578 14.192267 -3.818860 12.340377 -11.558342 -2.672774 -16.181485 -53.005564 -19.007955 76.472977 -78.932473 112.482697 -0.000004 -0.000005 -0.000009 0.013847 -7.735783 -0.305338 0.000003 0.000010 -3.006300 -5.000207 -7.999033 0.000123 -29.093252 71.592759 33.551457 81.857673 71.030388 -115.481574 -0.000000 -0.000000 0.000004 5.292676 10.883123 -1.207623 -0.000001 -0.000007 3.003693 -5.000186 7.998753 -0.000169 -17.277117 -178.367112 -2.348370 -179.999991 0.000005 -1.137003 155.425135 -3.278291 -1.262016 -0.000000 -0.000002 0.657355 73.716511 7.346391 0.438524 25.461299 -7.353972 0.000557 -12.918617 -179.097423 2.169214 -0.000019 -0.000004 -1.177910 -23.335058 1.698311 1.027169 -0.000009 -0.000005 -0.735786 76.661490 -6.734190 -1.998919 25.459067 7.348888 -0.000277 
